<?xml version="1.0" standalone="no"?><!DOCTYPE svg PUBLIC "-//W3C//DTD SVG 1.1//EN" "http://www.w3.org/Graphics/SVG/1.1/DTD/svg11.dtd"><svg t="1536657062413" class="icon" style="" viewBox="0 0 4341 1024" version="1.1" xmlns="http://www.w3.org/2000/svg" p-id="1553" xmlns:xlink="http://www.w3.org/1999/xlink" width="203.484375" height="48"><defs><style type="text/css"></style></defs><path d="M665.6 0h-450.56C102.4 0 10.24 92.16 10.24 204.8v471.04c0 112.64 92.16 204.8 204.8 204.8h163.84c0 133.12 143.36 143.36 143.36 143.36v-143.36h143.36c112.64 0 204.8-92.16 204.8-204.8V204.8c0-112.64-92.16-204.8-204.8-204.8z m-38.912 450.56l-96.256 204.8c-20.48 45.056-55.296 81.92-100.352 81.92h-81.92c-45.056 0-65.536-36.864-43.008-81.92l67.584-143.36H307.2c-45.056 0-65.536-36.864-43.008-81.92l96.256-204.8c20.48-45.056 55.296-81.92 100.352-81.92h81.92c45.056 0 65.536 36.864 43.008 81.92l-67.584 143.36h65.536c45.056 0 65.536 36.864 43.008 81.92z" fill="#FFFFFF" p-id="1554"></path><path d="M1273.856 217.088h32.768v452.608h260.096v30.72H1273.856V217.088zM1703.936 217.088h32.768V266.24h-32.768v-49.152z m0 483.328v-348.16h32.768v346.112h-32.768zM1945.6 790.528c-28.672-22.528-43.008-49.152-43.008-79.872h30.72c0 22.528 12.288 43.008 34.816 59.392 22.528 16.384 51.2 24.576 83.968 24.576 34.816 0 63.488-10.24 86.016-28.672 22.528-18.432 32.768-45.056 32.768-75.776v-71.68c-10.24 22.528-26.624 40.96-47.104 53.248-22.528 14.336-45.056 20.48-69.632 20.48-45.056 0-81.92-16.384-108.544-47.104-28.672-32.768-40.96-75.776-40.96-129.024 0-53.248 14.336-96.256 40.96-129.024 26.624-32.768 63.488-47.104 108.544-47.104 26.624 0 51.2 6.144 71.68 20.48s36.864 32.768 45.056 55.296v-65.536h32.768v337.92c0 40.96-12.288 73.728-38.912 96.256-26.624 22.528-63.488 34.816-110.592 34.816-45.056 4.096-79.872-6.144-108.544-28.672z m188.416-165.888c22.528-30.72 34.816-65.536 34.816-106.496s-12.288-77.824-34.816-106.496c-22.528-28.672-51.2-43.008-83.968-43.008-34.816 0-63.488 14.336-86.016 40.96-22.528 28.672-32.768 63.488-32.768 110.592 0 45.056 10.24 81.92 32.768 110.592 20.48 28.672 49.152 40.96 86.016 40.96 32.768-2.048 61.44-18.432 83.968-47.104zM2385.92 700.416V217.088h32.768v200.704c10.24-22.528 26.624-43.008 49.152-55.296 20.48-14.336 45.056-20.48 69.632-20.48 32.768 0 61.44 12.288 83.968 36.864 22.528 24.576 34.816 53.248 34.816 88.064v235.52h-32.768V471.04c0-28.672-8.192-51.2-24.576-71.68-16.384-20.48-36.864-30.72-61.44-30.72-26.624 0-51.2 10.24-71.68 28.672-22.528 18.432-36.864 43.008-45.056 75.776v227.328h-34.816zM2859.008 690.176c-12.288-14.336-18.432-30.72-18.432-51.2V378.88h-49.152v-24.576h49.152v-98.304h32.768v98.304h47.104v24.576h-47.104v260.096c0 14.336 4.096 24.576 10.24 34.816s14.336 14.336 24.576 14.336 18.432-2.048 24.576-6.144v24.576c-12.288 4.096-20.48 6.144-28.672 6.144-16.384 0-32.768-8.192-45.056-22.528zM3153.92 690.176c-22.528-14.336-38.912-32.768-49.152-57.344v67.584H3072V217.088h32.768V430.08c10.24-24.576 24.576-45.056 47.104-61.44 22.528-14.336 47.104-22.528 73.728-22.528 45.056 0 81.92 16.384 108.544 49.152 28.672 32.768 40.96 77.824 40.96 133.12s-14.336 100.352-40.96 133.12c-26.624 32.768-63.488 49.152-108.544 49.152-24.576 2.048-49.152-6.144-71.68-20.48z m159.744-49.152c22.528-28.672 32.768-65.536 32.768-112.64s-10.24-83.968-32.768-112.64c-22.528-28.672-51.2-43.008-88.064-43.008-32.768 0-61.44 14.336-86.016 45.056-24.576 30.72-34.816 65.536-34.816 108.544 0 43.008 12.288 79.872 34.816 108.544 22.528 30.72 51.2 45.056 86.016 45.056 36.864 4.096 65.536-10.24 88.064-38.912zM3565.568 657.408c-30.72-32.768-45.056-75.776-45.056-131.072s14.336-100.352 45.056-135.168c28.672-32.768 69.632-51.2 118.784-51.2s88.064 16.384 118.784 51.2c28.672 34.816 43.008 79.872 43.008 135.168 0 55.296-14.336 98.304-43.008 131.072-30.72 32.768-69.632 49.152-118.784 49.152-51.2-2.048-90.112-18.432-118.784-49.152z m210.944-20.48c22.528-28.672 34.816-65.536 34.816-110.592 0-47.104-12.288-86.016-34.816-114.688-24.576-28.672-55.296-43.008-94.208-43.008-38.912 0-71.68 14.336-94.208 43.008-24.576 28.672-34.816 65.536-34.816 114.688 0 47.104 12.288 83.968 34.816 110.592 22.528 28.672 55.296 40.96 94.208 40.96 38.912 0 71.68-12.288 94.208-40.96zM4030.464 690.176c-12.288-14.336-18.432-30.72-18.432-51.2V378.88h-49.152v-24.576h49.152v-98.304h32.768v98.304h47.104v24.576h-47.104v260.096c0 14.336 4.096 24.576 10.24 34.816s14.336 14.336 24.576 14.336 18.432-2.048 24.576-6.144v24.576c-12.288 4.096-20.48 6.144-28.672 6.144-16.384 0-30.72-8.192-45.056-22.528z" fill="#FFFFFF" p-id="1555"></path></svg>