<?xml version="1.0" encoding="utf-8"?>
<!-- Generator: Adobe Illustrator 21.0.0, SVG Export Plug-In . SVG Version: 6.00 Build 0)  -->
<svg version="1.1" id="contact-total" xmlns="http://www.w3.org/2000/svg" xmlns:xlink="http://www.w3.org/1999/xlink" x="0px" y="0px"
	 viewBox="0 0 56 56" style="enable-background:new 0 0 56 56;" xml:space="preserve">
<style type="text/css">
	.st0{fill-rule:evenodd;clip-rule:evenodd;fill:url(#SVGID_1_);}
	.st1{fill:none;stroke:#FFFFFF;stroke-width:2;stroke-miterlimit:10;}
</style>
<g>
	<g>
		<linearGradient id="SVGID_1_" gradientUnits="userSpaceOnUse" x1="51.5012" y1="51.1262" x2="4.8737" y2="4.4988">
			<stop  offset="0" style="stop-color:#FF9085"/>
			<stop  offset="1" style="stop-color:#F6FFA9"/>
		</linearGradient>
		<path class="st0" d="M16.2-0.2h24c8.8,0,16,7.2,16,16v24c0,8.8-7.2,16-16,16h-24c-8.8,0-16-7.2-16-16v-24C0.2,7,7.4-0.2,16.2-0.2z
			"/>
	</g>
	<g>
		<path class="st1" d="M26.5,16.5c1.3-1.5,3.4-1.8,5.6-1.8c3.3,0,5.7,2.7,5.7,5.3v2.6c0,1.8,0.2,5.5-1.8,7.1l3.9,2.5
			c0,0,1.4,0.8,1.4,1.7v1.9c0,0.8-0.8,1.6-1.6,1.6l-1.5-0.1 M32.3,40.9h1.4c0.8,0,1.5-0.7,1.5-1.5V38c0-0.9-1.5-1.5-1.5-1.5
			l-6.4-3.1c2-1.7,2.7-3,2.7-4.9v-4.8c0-2.5-1.5-3.6-4.8-3.6c-3.3,0-5,1.1-5,3.6v4.8c0,1.7,0.8,3.1,2.8,4.9l-6.5,3.2
			c0,0-1.5,0.7-1.5,1.5v1.4c0,0.8,0.7,1.5,1.5,1.5h1.5H32.3z"/>
	</g>
</g>
</svg>
