<?xml version="1.0" encoding="utf-8"?>
<!-- Generator: Adobe Illustrator 21.0.0, SVG Export Plug-In . SVG Version: 6.00 Build 0)  -->
<svg version="1.1" id="keyword" xmlns="http://www.w3.org/2000/svg" xmlns:xlink="http://www.w3.org/1999/xlink" x="0px" y="0px"
	 viewBox="0 0 56 56" style="enable-background:new 0 0 56 56;" xml:space="preserve">
<style type="text/css">
	.st0{fill:url(#SVGID_1_);}
	.st1{fill:#FFFFFF;}
</style>
<g>
	<g>
		<g>
			
				<linearGradient id="SVGID_1_" gradientUnits="userSpaceOnUse" x1="51.3515" y1="35.561" x2="4.7327" y2="-11.0578" gradientTransform="matrix(1 0 0 1 0 16)">
				<stop  offset="0" style="stop-color:#CD79FF"/>
				<stop  offset="1" style="stop-color:#FFA4E1"/>
			</linearGradient>
			<path class="st0" d="M16.1,0.3h24c8.8,0,16,7.2,16,16v24c0,8.8-7.2,16-16,16h-24c-8.8,0-16-7.2-16-16v-24
				C0.1,7.4,7.3,0.3,16.1,0.3z"/>
		</g>
	</g>
</g>
<g>
	<path class="st1" d="M34.8,27.6c0.2,0.8,0.4,1.5,0.4,2.4c0,4.1-3.5,8.8-8.6,8.8c-4.7,0-8.7-4.1-8.7-8.8c0-4.7,4.3-8.7,8.6-8.7
		c0.8,0,1.7,0.1,2.5,0.3l0.4-1.7c-0.9-0.2-1.8-0.4-2.8-0.4c-5.8,0-10.4,4.7-10.4,10.5c0,5.8,4.7,10.4,10.4,10.4
		c5.8,0,10.4-4.7,10.4-10.4c0-1.1-0.2-2.1-0.4-3L34.8,27.6L34.8,27.6z"/>
	<path class="st1" d="M27.1,26.6c0.2,0,0.4,0,0.5,0.1L28,25c-0.3-0.1-0.6-0.1-1-0.1c-2.8,0-5.2,2.2-5.4,5c-0.2,3.1,2.3,5.2,5.4,5.2
		c2.8,0,5-2.4,5-5.2c0-0.4,0-0.7-0.1-1l-1.8,0.4c0,0.2,0.1,0.4,0.1,0.6c0,2.1-1.2,3.6-3.2,3.6c-2,0-3.6-1.3-3.6-3.4
		C23.5,28.1,25.1,26.6,27.1,26.6L27.1,26.6z"/>
	<path class="st1" d="M40.1,20.6l-4.7,0.2l-0.5-4.7l-1.2,1.3l0,0l-3.1,3.6l0.1,0.1l0.2,3.7l-4.3,4.9l1.3,1.1l4.3-4.9l3.7-0.3l0,0
		l0,0l3.1-3.6l0,0l0,0C38.9,21.9,40.1,20.6,40.1,20.6z M35.1,24.1l-2.9,0.2L32,21.5l1.9-2.2l0.2,2.9l2.9-0.2
		C37,21.9,35.1,24.1,35.1,24.1z"/>
</g>
</svg>
