<?xml version="1.0" encoding="utf-8"?>
<!-- Generator: Adobe Illustrator 21.0.0, SVG Export Plug-In . SVG Version: 6.00 Build 0)  -->
<svg version="1.1" id="yestday-day-active" xmlns="http://www.w3.org/2000/svg" xmlns:xlink="http://www.w3.org/1999/xlink" x="0px" y="0px"
	 viewBox="0 0 56 56" style="enable-background:new 0 0 56 56;" xml:space="preserve">
<style type="text/css">
	.st0{fill-rule:evenodd;clip-rule:evenodd;fill:url(#SVGID_1_);}
	.st1{fill:#FFFFFF;}
</style>
<g>
	<g>
		<g>
			<linearGradient id="SVGID_1_" gradientUnits="userSpaceOnUse" x1="51.4453" y1="51.47" x2="4.8178" y2="4.8425">
				<stop  offset="0" style="stop-color:#2BECAA"/>
				<stop  offset="1" style="stop-color:#FFFB97"/>
			</linearGradient>
			<path class="st0" d="M16.1,0.2h24c8.8,0,16,7.2,16,16v24c0,8.8-7.2,16-16,16h-24c-8.8,0-16-7.2-16-16v-24
				C0.1,7.3,7.3,0.2,16.1,0.2z"/>
		</g>
	</g>
	<path class="st1" d="M34.9,32.6c-0.7,0-1-0.3-1-0.3c-1.7-1.2-3.7-1.8-5.9-1.8c-5.7,0-10.3,4.6-10.3,10.3c0,0.3,0,0.5,0,0.8h-1.3
		c0-0.3,0-0.5,0-0.8c0-5.3,3.5-9.8,8.4-11.2c-2.7-1.2-4.6-4-4.6-7.2c0-4.3,3.5-7.9,7.9-7.9s7.9,3.5,7.9,7.9c0,3.2-1.9,5.9-4.6,7.2
		c1.8,0.5,3.4,1.4,4.7,2.7C36,32.4,35.6,32.7,34.9,32.6z M28.1,29.2c3.7,0,6.7-3,6.7-6.7s-3-6.7-6.7-6.7s-6.7,3-6.7,6.7
		S24.4,29.2,28.1,29.2z M32,35.8l-1,1l3.9,3.9l1-1C35.9,39.7,32,35.8,32,35.8z M27.1,40.7l1,1l3.9-3.9l-1-1L27.1,40.7z M34.9,38.8
		l1,1l3.9-3.9l-1-1L34.9,38.8z"/>
</g>
</svg>
