<?xml version="1.0" encoding="utf-8"?>
<!-- Generator: Adobe Illustrator 21.0.0, SVG Export Plug-In . SVG Version: 6.00 Build 0)  -->
<svg version="1.1" id="yestday-week-active" xmlns="http://www.w3.org/2000/svg" xmlns:xlink="http://www.w3.org/1999/xlink" x="0px" y="0px"
	 viewBox="0 0 56 56" style="enable-background:new 0 0 56 56;" xml:space="preserve">
<style type="text/css">
	.st0{fill:url(#SVGID_1_);}
	.st1{fill:none;}
	.st2{fill:#FFFFFF;}
</style>
<g>
	
		<linearGradient id="SVGID_1_" gradientUnits="userSpaceOnUse" x1="51.1" y1="4.8" x2="4.7" y2="51.2" gradientTransform="matrix(1 0 0 -1 0 56)">
		<stop  offset="0" style="stop-color:#FF9085"/>
		<stop  offset="1" style="stop-color:#F6FFA9"/>
	</linearGradient>
	<path class="st0" d="M39.8,55.9H16c-8.8,0-16-7.2-16-16V16.1c0-8.8,7.2-16,16-16h23.8c8.8,0,16,7.2,16,16v23.8
		C55.8,48.7,48.6,55.9,39.8,55.9z"/>
	<g>
		<circle class="st1" cx="28.1" cy="22.5" r="6.7"/>
		<path class="st2" d="M36,22.4c0-4.4-3.5-7.9-7.9-7.9s-7.9,3.6-7.9,7.9c0,3.2,1.9,6,4.6,7.2c-4.9,1.4-8.4,5.9-8.4,11.2
			c0,0.3,0,0.5,0,0.8h1.3c0-0.3,0-0.5,0-0.8c0-5.7,4.6-10.3,10.3-10.3c2.2,0,4.2,0.6,5.9,1.8c0,0,0.3,0.3,1,0.3
			c0.7,0.1,1.1-0.2,1.2-0.3c-1.3-1.3-2.9-2.2-4.7-2.7C34.1,28.3,36,25.6,36,22.4z M21.4,22.5c0-3.7,3-6.7,6.7-6.7s6.7,3,6.7,6.7
			s-3,6.7-6.7,6.7S21.4,26.2,21.4,22.5z"/>
		<rect x="26" y="36" class="st2" width="2" height="6"/>
		<rect x="38" y="34" class="st2" width="2" height="8"/>
		<rect x="34" y="36" class="st2" width="2" height="6"/>
		<rect x="30" y="38" class="st2" width="2" height="4"/>
	</g>
</g>
</svg>
