<?xml version="1.0" encoding="utf-8"?>
<!-- Generator: Adobe Illustrator 21.0.0, SVG Export Plug-In . SVG Version: 6.00 Build 0)  -->
<svg version="1.1" id="yestday-month-active" xmlns="http://www.w3.org/2000/svg" xmlns:xlink="http://www.w3.org/1999/xlink" x="0px" y="0px"
	 viewBox="0 0 56 56" style="enable-background:new 0 0 56 56;" xml:space="preserve">
<style type="text/css">
	.st0{fill:url(#SVGID_1_);}
	.st1{fill:#FFFFFF;}
	.st2{fill-rule:evenodd;clip-rule:evenodd;fill:none;stroke:#FFFFFF;stroke-width:2;stroke-miterlimit:10;}
</style>
<g>
	<g>
		<g>
			
				<linearGradient id="SVGID_1_" gradientUnits="userSpaceOnUse" x1="51.4" y1="4.5" x2="4.7812" y2="51.1188" gradientTransform="matrix(1 0 0 -1 0 56)">
				<stop  offset="0" style="stop-color:#41A8FF"/>
				<stop  offset="1" style="stop-color:#AEBBFF"/>
			</linearGradient>
			<path class="st0" d="M16.1,0.2h24c8.8,0,16,7.2,16,16v24c0,8.8-7.2,16-16,16h-24c-8.8,0-16-7.2-16-16v-24
				C0.1,7.3,7.3,0.2,16.1,0.2z"/>
		</g>
	</g>
	<path class="st1" d="M34.9,32.6c-0.7,0-1-0.3-1-0.3c-1.7-1.2-3.7-1.8-5.9-1.8c-5.7,0-10.3,4.6-10.3,10.3c0,0.3,0,0.5,0,0.8h-1.3
		c0-0.3,0-0.5,0-0.8c0-5.3,3.5-9.8,8.4-11.2c-2.7-1.2-4.6-4-4.6-7.2c0-4.3,3.5-7.9,7.9-7.9S36,18,36,22.4c0,3.2-1.9,5.9-4.6,7.2
		c1.8,0.5,3.4,1.4,4.7,2.7C36,32.4,35.6,32.7,34.9,32.6z M28.1,29.2c3.7,0,6.7-3,6.7-6.7s-3-6.7-6.7-6.7s-6.7,3-6.7,6.7
		S24.4,29.2,28.1,29.2z"/>
</g>
<g>
	<path class="st2" d="M39.8,35.7c-4,0-1.6,5-6,5c-4.2,0-3-5-6-5c-2.3,0-2.6,5-6,5"/>
</g>
</svg>
